<svg width="133" height="1448" viewBox="0 0 133 1448" fill="none" xmlns="http://www.w3.org/2000/svg">
<ellipse cx="67" cy="183.93" rx="39" ry="33.945" fill="#F3703B"/>
<ellipse cx="67" cy="183.93" rx="25" ry="21.6871" fill="#FFD303"/>
<rect x="48" y="210" width="37" height="1238" fill="#F3703B"/>
<rect x="57" y="184" width="17" height="1264" fill="#FFD303"/>
<path d="M65.9715 42.1924V1.20551C38.1941 15.6715 30.4781 34.5576 30.0923 42.1924H65.9715Z" fill="#F8A497"/>
<path d="M128.471 121.755L113.425 113.317C113.425 125.854 106.48 150.687 103.008 161.537C114.119 167.323 119.983 184.843 121.526 192.88C138.193 168.77 133.1 135.418 128.471 121.755Z" fill="#DFDCDC"/>
<path d="M4.52917 121.755L19.5753 113.317C19.5753 125.854 26.5197 150.687 29.9919 161.537C18.8809 167.323 13.0167 184.843 11.4735 192.88C-5.19294 168.77 -0.100403 135.418 4.52917 121.755Z" fill="#DFDCDC"/>
<path d="M88.9544 171.181H36.8717C1.6869 125.854 16.8102 62.2841 28.7699 36.165H95.8988C121.824 94.9933 102.072 150.687 88.9544 171.181Z" fill="#F37763"/>
<path d="M65.9715 171.181V0C85.9794 14.466 98.3918 32.5484 102.097 39.7814C130.997 82.215 114.139 145.062 102.097 171.181H65.9715Z" fill="#E94833"/>
<path d="M65.9715 42.1924V3.61646C93.749 17.2315 101.465 35.0067 101.851 42.1924H65.9715Z" fill="#F8A497"/>
<ellipse cx="65.9715" cy="78.9601" rx="21.9905" ry="24.7127" fill="#E94833"/>
<ellipse cx="67.1289" cy="78.3574" rx="17.3609" ry="19.288" fill="#40C8F4"/>
</svg>
