<?xml version="1.0" encoding="iso-8859-1"?>
<!-- Generator: Adobe Illustrator 19.0.0, SVG Export Plug-In . SVG Version: 6.00 Build 0)  -->
<svg version="1.1" id="Capa_1" xmlns="http://www.w3.org/2000/svg" xmlns:xlink="http://www.w3.org/1999/xlink" x="0px" y="0px"
	 viewBox="0 0 470 470" style="enable-background:new 0 0 470 470;" xml:space="preserve">
<g>
	<rect x="325" y="343.525" style="fill:#FFFFFF;" width="60" height="25"/>
	<polygon style="fill:#F2EBD9;" points="40.607,86.475 429.393,86.475 444.393,71.475 25.607,71.475 	"/>
	<polygon style="fill:#F2EBD9;" points="310,368.525 310,353.525 40.607,353.525 25.607,368.525 	"/>
	<polygon style="fill:#F2EBD9;" points="429.393,353.525 400,353.525 400,368.525 444.393,368.525 	"/>
	<polygon style="fill:#FFCC75;" points="30,342.918 30,97.082 15,82.082 15,357.918 	"/>
	<polygon style="fill:#FFCC75;" points="440,97.082 440,342.918 455,357.918 455,82.082 	"/>
	<rect x="55" y="383.525" style="fill:#FFCC75;" width="360" height="15"/>
	<path style="fill:#6DA8D6;" d="M310,336.025c0-4.142,3.357-7.5,7.5-7.5h75c4.143,0,7.5,3.358,7.5,7.5v2.5h25v-237.05H45v237.05h265
		V336.025z M179.398,256.821c2.309,3.439,1.391,8.099-2.049,10.407c-1.282,0.861-2.735,1.273-4.172,1.273
		c-2.416,0-4.787-1.165-6.234-3.322L145.66,233.46l-21.284,31.719c-1.447,2.157-3.818,3.322-6.234,3.322
		c-1.437,0-2.89-0.412-4.172-1.273c-3.439-2.308-4.357-6.967-2.049-10.407L136.628,220l-24.707-36.821
		c-2.309-3.439-1.391-8.099,2.049-10.407c3.438-2.309,8.099-1.39,10.406,2.049l21.284,31.719l21.284-31.719
		c2.308-3.44,6.969-4.357,10.406-2.049c3.439,2.308,4.357,6.967,2.049,10.407L154.691,220L179.398,256.821z M265,226.844h-22.5v22.5
		c0,4.142-3.357,7.5-7.5,7.5s-7.5-3.358-7.5-7.5v-22.5H205c-4.143,0-7.5-3.358-7.5-7.5s3.357-7.5,7.5-7.5h22.5v-22.5
		c0-4.142,3.357-7.5,7.5-7.5s7.5,3.358,7.5,7.5v22.5H265c4.143,0,7.5,3.358,7.5,7.5S269.143,226.844,265,226.844z M292.65,172.772
		c3.438-2.308,8.099-1.39,10.406,2.049l21.455,31.974l21.082-31.928c2.283-3.457,6.936-4.408,10.392-2.126
		c3.456,2.282,4.408,6.935,2.126,10.391l-26.049,39.45V261c0,4.142-3.357,7.5-7.5,7.5s-7.5-3.358-7.5-7.5v-38.387l-26.46-39.434
		C288.293,179.739,289.211,175.08,292.65,172.772z"/>
	<path style="fill:#FFFFFF;" d="M177.35,172.772c-3.438-2.308-8.099-1.391-10.406,2.049L145.66,206.54l-21.284-31.719
		c-2.308-3.439-6.968-4.358-10.406-2.049c-3.439,2.308-4.357,6.967-2.049,10.407L136.628,220l-24.707,36.821
		c-2.309,3.439-1.391,8.099,2.049,10.407c1.282,0.861,2.735,1.273,4.172,1.273c2.416,0,4.787-1.165,6.234-3.322l21.284-31.719
		l21.284,31.719c1.447,2.157,3.818,3.322,6.234,3.322c1.437,0,2.89-0.412,4.172-1.273c3.439-2.308,4.357-6.967,2.049-10.407
		L154.691,220l24.707-36.821C181.707,179.739,180.789,175.08,177.35,172.772z"/>
	<path style="fill:#FFFFFF;" d="M317.062,222.613V261c0,4.142,3.357,7.5,7.5,7.5s7.5-3.358,7.5-7.5v-38.417l26.049-39.45
		c2.282-3.457,1.33-8.109-2.126-10.391c-3.456-2.282-8.108-1.331-10.392,2.126l-21.082,31.928l-21.455-31.974
		c-2.308-3.439-6.968-4.357-10.406-2.049c-3.439,2.308-4.357,6.967-2.049,10.407L317.062,222.613z"/>
	<path style="fill:#FFFFFF;" d="M265,211.844h-22.5v-22.5c0-4.142-3.357-7.5-7.5-7.5s-7.5,3.358-7.5,7.5v22.5H205
		c-4.143,0-7.5,3.358-7.5,7.5s3.357,7.5,7.5,7.5h22.5v22.5c0,4.142,3.357,7.5,7.5,7.5s7.5-3.358,7.5-7.5v-22.5H265
		c4.143,0,7.5-3.358,7.5-7.5S269.143,211.844,265,211.844z"/>
	<path style="fill:#082947;" d="M468.51,380.497c0.076-0.102,0.155-0.201,0.225-0.306c0.074-0.111,0.139-0.226,0.207-0.34
		c0.057-0.096,0.118-0.19,0.171-0.29c0.062-0.115,0.114-0.234,0.169-0.352c0.049-0.104,0.101-0.206,0.146-0.313
		c0.048-0.116,0.086-0.234,0.128-0.351c0.041-0.113,0.084-0.225,0.119-0.341c0.036-0.119,0.063-0.24,0.093-0.361
		c0.029-0.117,0.062-0.232,0.086-0.351c0.028-0.141,0.045-0.284,0.065-0.427c0.014-0.1,0.033-0.198,0.043-0.299
		c0.025-0.249,0.038-0.498,0.038-0.748V63.98c0-0.25-0.013-0.499-0.038-0.748c-0.01-0.101-0.029-0.199-0.043-0.299
		c-0.02-0.143-0.037-0.285-0.065-0.427c-0.023-0.119-0.056-0.234-0.086-0.351c-0.03-0.121-0.057-0.242-0.093-0.361
		c-0.035-0.116-0.079-0.228-0.119-0.341c-0.042-0.117-0.081-0.236-0.128-0.351c-0.044-0.107-0.096-0.209-0.146-0.313
		c-0.055-0.118-0.108-0.236-0.169-0.352c-0.053-0.099-0.114-0.193-0.171-0.29c-0.068-0.114-0.132-0.229-0.207-0.34
		c-0.071-0.106-0.149-0.205-0.225-0.306c-0.07-0.094-0.135-0.191-0.211-0.282c-0.146-0.178-0.301-0.348-0.463-0.512
		c-0.23-0.229-0.403-0.386-0.583-0.534c-0.087-0.071-0.178-0.133-0.268-0.2c-0.107-0.08-0.211-0.163-0.322-0.237
		c-0.107-0.071-0.217-0.133-0.327-0.199c-0.1-0.06-0.198-0.123-0.302-0.178c-0.113-0.06-0.229-0.111-0.344-0.165
		c-0.107-0.05-0.212-0.104-0.321-0.149c-0.113-0.047-0.228-0.084-0.342-0.125c-0.116-0.042-0.232-0.087-0.351-0.123
		c-0.115-0.035-0.231-0.06-0.347-0.089c-0.121-0.03-0.241-0.064-0.364-0.089c-0.135-0.027-0.272-0.043-0.408-0.062
		c-0.106-0.015-0.21-0.035-0.317-0.046c-0.247-0.024-0.496-0.037-0.744-0.037H7.502c-0.248,0-0.496,0.013-0.744,0.037
		c-0.107,0.01-0.211,0.031-0.317,0.046c-0.136,0.019-0.273,0.036-0.408,0.062c-0.123,0.024-0.243,0.058-0.364,0.089
		c-0.116,0.029-0.232,0.055-0.347,0.089c-0.119,0.036-0.234,0.081-0.351,0.123C4.857,56.962,4.742,57,4.629,57.047
		c-0.109,0.045-0.214,0.098-0.32,0.149c-0.115,0.054-0.231,0.105-0.344,0.166c-0.103,0.055-0.201,0.118-0.302,0.178
		c-0.11,0.065-0.22,0.127-0.327,0.199c-0.111,0.074-0.216,0.157-0.322,0.237c-0.089,0.067-0.181,0.129-0.268,0.2
		c-0.18,0.148-0.353,0.305-0.519,0.469c-0.226,0.229-0.381,0.399-0.527,0.577c-0.075,0.091-0.141,0.188-0.211,0.282
		c-0.076,0.102-0.155,0.201-0.225,0.306c-0.074,0.111-0.139,0.226-0.207,0.34C1,60.245,0.94,60.339,0.887,60.438
		c-0.062,0.116-0.115,0.235-0.17,0.354c-0.049,0.103-0.1,0.205-0.144,0.31c-0.048,0.116-0.087,0.235-0.129,0.353
		c-0.04,0.113-0.084,0.224-0.119,0.339c-0.036,0.119-0.063,0.24-0.093,0.361c-0.029,0.117-0.062,0.232-0.086,0.351
		c-0.028,0.141-0.045,0.284-0.065,0.427c-0.014,0.1-0.033,0.198-0.043,0.299C0.013,63.481,0,63.731,0,63.98v312.04
		c0,0.25,0.013,0.499,0.038,0.748c0.01,0.101,0.029,0.199,0.043,0.299c0.02,0.143,0.037,0.285,0.065,0.427
		c0.023,0.119,0.056,0.234,0.086,0.351c0.03,0.121,0.057,0.242,0.093,0.361c0.035,0.115,0.078,0.227,0.119,0.339
		c0.042,0.118,0.081,0.237,0.129,0.353c0.044,0.106,0.095,0.207,0.144,0.31c0.055,0.118,0.108,0.238,0.17,0.354
		c0.053,0.099,0.114,0.193,0.171,0.29c0.068,0.114,0.132,0.229,0.207,0.34c0.071,0.106,0.149,0.205,0.225,0.306
		c0.07,0.094,0.135,0.191,0.211,0.282c0.146,0.178,0.301,0.348,0.463,0.512c0.23,0.229,0.403,0.386,0.583,0.534
		c0.086,0.071,0.177,0.133,0.266,0.199c0.107,0.08,0.212,0.164,0.324,0.238c0.105,0.07,0.214,0.131,0.322,0.195
		c0.102,0.061,0.203,0.125,0.308,0.182c0.11,0.059,0.222,0.108,0.334,0.161c0.11,0.052,0.218,0.107,0.331,0.154
		c0.109,0.045,0.22,0.081,0.331,0.121c0.12,0.043,0.239,0.089,0.362,0.127c0.111,0.034,0.225,0.058,0.337,0.087
		c0.125,0.031,0.247,0.066,0.374,0.091c0.13,0.026,0.262,0.041,0.393,0.06c0.111,0.016,0.22,0.037,0.333,0.048
		c0.246,0.024,0.493,0.037,0.74,0.037H40v22.5c0,4.142,3.357,7.5,7.5,7.5h375c4.143,0,7.5-3.358,7.5-7.5v-22.5h32.5
		c0.247,0,0.494-0.013,0.74-0.037c0.112-0.011,0.222-0.032,0.333-0.048c0.131-0.019,0.263-0.034,0.393-0.06
		c0.127-0.025,0.25-0.06,0.374-0.091c0.113-0.028,0.226-0.053,0.337-0.087c0.123-0.037,0.242-0.083,0.363-0.127
		c0.11-0.04,0.221-0.076,0.33-0.121c0.113-0.047,0.222-0.102,0.332-0.154c0.112-0.053,0.224-0.102,0.333-0.161
		c0.105-0.056,0.206-0.121,0.308-0.182c0.108-0.064,0.217-0.125,0.322-0.195c0.112-0.075,0.217-0.158,0.324-0.238
		c0.089-0.066,0.18-0.128,0.266-0.199c0.18-0.148,0.353-0.305,0.519-0.469c0.226-0.229,0.381-0.399,0.527-0.577
		C468.375,380.688,468.44,380.592,468.51,380.497z M55,398.525v-15h360v15H55z M400,368.525v-15h29.393l15,15H400z M325,368.525v-25
		h60v25H325z M45,338.525v-237.05h380v237.05h-25v-2.5c0-4.142-3.357-7.5-7.5-7.5h-75c-4.143,0-7.5,3.358-7.5,7.5v2.5H45z
		 M429.393,86.475H40.607l-15-15h418.786L429.393,86.475z M30,97.082v245.836l-15,15V82.082L30,97.082z M440,342.918V97.082l15-15
		v275.836L440,342.918z M40.607,353.525H310v15H25.607L40.607,353.525z"/>
</g>
<g>
</g>
<g>
</g>
<g>
</g>
<g>
</g>
<g>
</g>
<g>
</g>
<g>
</g>
<g>
</g>
<g>
</g>
<g>
</g>
<g>
</g>
<g>
</g>
<g>
</g>
<g>
</g>
<g>
</g>
</svg>
