<?xml version="1.0" encoding="iso-8859-1"?>
<!-- Generator: Adobe Illustrator 19.0.0, SVG Export Plug-In . SVG Version: 6.00 Build 0)  -->
<svg version="1.1" id="Layer_1" xmlns="http://www.w3.org/2000/svg" xmlns:xlink="http://www.w3.org/1999/xlink" x="0px" y="0px"
	 viewBox="0 0 512 512" style="enable-background:new 0 0 512 512;" xml:space="preserve">
<path style="fill:#00d8e5;" d="M297.373,256.076c-17.054-37.669-48.629-67.305-87.59-81.812V83.391h1.001
	c6.5,0,12.379-2.635,16.623-6.893c4.257-4.257,6.893-10.136,6.893-16.624c0-13-10.529-23.529-23.516-23.529H100.337
	c-6.487,0-12.379,2.635-16.636,6.893c-4.257,4.257-6.893,10.136-6.893,16.636c0,12.987,10.542,23.516,23.529,23.516h1.014v90.872
	C40.928,196.733-1.757,255.651,0.056,324.311c2.197,83.157,70.48,150.369,153.66,151.332c21.727,0.252,42.46-3.962,61.3-11.786
	c-7.412-8.489-10.656-20.45-7.412-32.081C277.544,388.113,297.373,256.076,297.373,256.076z"/>
<path style="fill:#2197D8;" d="M130.441,83.391h23.111c-12.987,0-23.529-10.529-23.529-23.516c0-6.5,2.635-12.379,6.893-16.636
	c4.257-4.257,10.149-6.893,16.636-6.893h-53.215c-6.487,0-12.379,2.635-16.636,6.893c-4.257,4.257-6.893,10.136-6.893,16.636
	c0,12.987,10.542,23.516,23.529,23.516h1.014l0,0v90.872C42.167,196.272,0,253.25,0,320.099
	c0,83.599,65.975,151.816,148.687,155.402c-31.879-3.586-57.295-71.79-57.295-155.402c0-66.849,16.243-123.827,39.05-145.836V83.391
	z"/>
<path style="fill:#F95428;" d="M260.597,337.787h-5.353c-19.88-5.727-27.368-17.688-58.613-17.688
	c-41.077,0-41.077,20.678-82.155,20.678c-9.376,0-16.624-1.077-22.693-2.749c-20.526-5.613-27.761-17.929-59.462-17.929
	c0,52.227,32.651,96.954,78.607,114.869c13.836,5.398,28.888,8.362,44.625,8.362c18.587,0,36.225-4.131,52.05-11.555h0.013v-0.001
	l6.418-0.582L260.597,337.787z"/>
<path id="SVGCleanerId_0" style="fill:#E54728;" d="M110.929,434.968c-45.955-17.916-78.607-62.642-78.607-114.869
	c31.701,0,38.936,12.316,59.462,17.929C93.482,376.279,100.514,410.312,110.929,434.968z"/>
<g>
	<path id="SVGCleanerId_0_1_" style="fill:#E54728;" d="M110.929,434.968c-45.955-17.916-78.607-62.642-78.607-114.869
		c31.701,0,38.936,12.316,59.462,17.929C93.482,376.279,100.514,410.312,110.929,434.968z"/>
</g>
<path style="fill:#00d8e5;" d="M508.094,425.048L407.973,230.849v-91.074h6.424c6.5,0,12.379-2.635,16.636-6.893
	c4.257-4.257,6.893-10.136,6.893-16.623c0-12.987-10.542-23.516-23.529-23.516H303.949c-6.487,0-12.366,2.635-16.624,6.893
	s-6.893,10.136-6.893,16.624c0,12.987,10.529,23.516,23.516,23.516h6.424v91.074l-13,25.227l-42.129,81.711l-44.992,87.261
	c-1.14,2.217-2.015,4.46-2.635,6.728h-0.013c-3.244,11.631,0,23.592,7.412,32.081c6.221,7.121,15.369,11.796,26.076,11.796h236.163
	C503.241,475.653,520.004,448.146,508.094,425.048z"/>
<path style="fill:#2197D8;" d="M333.648,116.258c0-6.5,2.635-12.379,6.893-16.636c4.257-4.257,10.149-6.893,16.636-6.893h-53.215
	c-6.487,0-12.379,2.635-16.636,6.893c-4.257,4.257-6.893,10.136-6.893,16.636c0,12.987,10.542,23.516,23.529,23.516h1.014h5.398
	v91.074l-13,25.227l-42.129,81.711l-44.992,87.261c-1.14,2.217-2.015,4.46-2.635,6.728h-0.013c-3.244,11.631,0,23.592,7.412,32.081
	c6.221,7.121,15.369,11.796,26.076,11.796h68.381c-4.507,0-8.357-4.675-10.975-11.796c-3.119-8.489-4.485-20.45-3.119-32.081h0.005
	c0.261-2.268,0.63-4.511,1.109-6.728l18.938-87.261l17.732-81.711l5.471-25.227v-91.074h18.544
	C344.19,139.775,333.648,129.245,333.648,116.258z"/>
<path style="fill:#F7B239;" d="M479.37,439.859l-61.679-119.646c-8.337-3.928-14.976-8.743-31.131-8.743
	c-27.393,0-27.393,13.798-54.761,13.798c-5.372,0-9.68-0.532-13.355-1.394c-6.728-1.546-11.302-4.169-16.269-6.614l-63.187,122.598
	c-0.228,0.418-0.621,1.191,0.076,2.331c0.697,1.14,1.558,1.14,2.027,1.14h53.798h182.364c0.469,0,1.343,0,2.027-1.14
	C479.978,441.05,479.585,440.277,479.37,439.859z"/>
<path style="fill:#E09B2D;" d="M318.444,323.875l-3.016,13.912l-18.942,87.261c-0.481,2.217-0.849,4.46-1.102,6.728h-0.013
	c-0.456,3.864-0.596,7.754-0.481,11.555h-53.798c-0.469,0-1.33,0-2.027-1.14s-0.304-1.913-0.076-2.331l63.187-122.598
	C307.142,319.706,311.716,322.329,318.444,323.875z"/>
<g>
</g>
<g>
</g>
<g>
</g>
<g>
</g>
<g>
</g>
<g>
</g>
<g>
</g>
<g>
</g>
<g>
</g>
<g>
</g>
<g>
</g>
<g>
</g>
<g>
</g>
<g>
</g>
<g>
</g>
</svg>
