<?xml version="1.0" encoding="iso-8859-1"?>
<!-- Generator: Adobe Illustrator 19.0.0, SVG Export Plug-In . SVG Version: 6.00 Build 0)  -->
<svg version="1.1" id="Capa_1" xmlns="http://www.w3.org/2000/svg" xmlns:xlink="http://www.w3.org/1999/xlink" x="0px" y="0px"
	 viewBox="0 0 468.74 468.74" style="enable-background:new 0 0 468.74 468.74;" xml:space="preserve">
<g>
	<path style="fill:#F2EBD9;" d="M196.87,424.495h75v-34.404c0-4.142,3.357-7.5,7.5-7.5v-15h-82.5V424.495z"/>
	<path style="fill:#98D9D5;" d="M453.74,302.385H15v27.707c0,12.407,10.094,22.5,22.5,22.5h393.74c12.406,0,22.5-10.093,22.5-22.5
		V302.385z"/>
	<path style="fill:#F2EBD9;" d="M309.37,232.385c-4.143,0-7.5-3.358-7.5-7.5v-19.896c0-0.02,0.003-0.04,0.003-0.059
		c0.001-0.109,0.01-0.217,0.016-0.325c0.008-0.158,0.017-0.315,0.035-0.471c0.089-0.726,0.259-1.394,0.523-2.029l23.878-57.309
		c0.009-0.021,0.017-0.042,0.026-0.063l17.03-40.873c1.164-2.794,3.896-4.615,6.923-4.615s5.759,1.82,6.923,4.615l17.027,40.863
		c0.012,0.028,0.024,0.056,0.035,0.085l23.874,57.296c0.265,0.635,0.434,1.303,0.516,1.983c0.025,0.202,0.034,0.36,0.042,0.517
		c0.006,0.108,0.015,0.217,0.016,0.325c0,0.02,0.003,0.04,0.003,0.059v19.896c0,4.142-3.357,7.5-7.5,7.5l0,15h22.5V84.245H286.87
		v163.14h22.5V232.385z"/>
	<path style="fill:#FFFFFF;" d="M15,287.385h438.74V66.745c0-12.407-10.094-22.5-22.5-22.5H37.5c-12.406,0-22.5,10.093-22.5,22.5
		V287.385z M271.87,76.745c0-4.142,3.357-7.5,7.5-7.5h141.87c4.143,0,7.5,3.358,7.5,7.5v178.14c0,4.142-3.357,7.5-7.5,7.5H279.37
		c-4.143,0-7.5-3.358-7.5-7.5V76.745z M47.5,69.245H240c4.143,0,7.5,3.358,7.5,7.5s-3.357,7.5-7.5,7.5H47.5
		c-4.143,0-7.5-3.358-7.5-7.5S43.357,69.245,47.5,69.245z M47.5,104.873H240c4.143,0,7.5,3.358,7.5,7.5s-3.357,7.5-7.5,7.5H47.5
		c-4.143,0-7.5-3.358-7.5-7.5S43.357,104.873,47.5,104.873z M47.5,140.501h96.25c4.143,0,7.5,3.358,7.5,7.5s-3.357,7.5-7.5,7.5H47.5
		c-4.143,0-7.5-3.358-7.5-7.5S43.357,140.501,47.5,140.501z M47.5,176.129H240c4.143,0,7.5,3.358,7.5,7.5s-3.357,7.5-7.5,7.5H47.5
		c-4.143,0-7.5-3.358-7.5-7.5S43.357,176.129,47.5,176.129z M47.5,211.757H240c4.143,0,7.5,3.358,7.5,7.5s-3.357,7.5-7.5,7.5H47.5
		c-4.143,0-7.5-3.358-7.5-7.5S43.357,211.757,47.5,211.757z M47.5,247.385h96.25c4.143,0,7.5,3.358,7.5,7.5s-3.357,7.5-7.5,7.5H47.5
		c-4.143,0-7.5-3.358-7.5-7.5S43.357,247.385,47.5,247.385z"/>
	<path style="fill:#082947;" d="M431.24,29.245H37.5c-20.678,0-37.5,16.822-37.5,37.5v263.346c0,20.678,16.822,37.5,37.5,37.5
		h144.37v56.904h-32.5c-4.143,0-7.5,3.358-7.5,7.5s3.357,7.5,7.5,7.5h170c4.143,0,7.5-3.358,7.5-7.5s-3.357-7.5-7.5-7.5h-32.5
		v-34.404c0-4.142-3.357-7.5-7.5-7.5s-7.5,3.358-7.5,7.5v34.404h-75v-56.904h234.37c20.678,0,37.5-16.822,37.5-37.5V66.745
		C468.74,46.067,451.918,29.245,431.24,29.245z M431.24,352.591H37.5c-12.406,0-22.5-10.093-22.5-22.5v-27.707h438.74v27.707
		C453.74,342.498,443.646,352.591,431.24,352.591z M37.5,44.245h393.74c12.406,0,22.5,10.093,22.5,22.5v220.64H15V66.745
		C15,54.338,25.094,44.245,37.5,44.245z"/>
	<path style="fill:#082947;" d="M47.5,84.245H240c4.143,0,7.5-3.358,7.5-7.5s-3.357-7.5-7.5-7.5H47.5c-4.143,0-7.5,3.358-7.5,7.5
		S43.357,84.245,47.5,84.245z"/>
	<path style="fill:#082947;" d="M47.5,119.873H240c4.143,0,7.5-3.358,7.5-7.5s-3.357-7.5-7.5-7.5H47.5c-4.143,0-7.5,3.358-7.5,7.5
		S43.357,119.873,47.5,119.873z"/>
	<path style="fill:#082947;" d="M47.5,155.501h96.25c4.143,0,7.5-3.358,7.5-7.5s-3.357-7.5-7.5-7.5H47.5c-4.143,0-7.5,3.358-7.5,7.5
		S43.357,155.501,47.5,155.501z"/>
	<path style="fill:#082947;" d="M47.5,191.129H240c4.143,0,7.5-3.358,7.5-7.5s-3.357-7.5-7.5-7.5H47.5c-4.143,0-7.5,3.358-7.5,7.5
		S43.357,191.129,47.5,191.129z"/>
	<path style="fill:#082947;" d="M47.5,226.757H240c4.143,0,7.5-3.358,7.5-7.5s-3.357-7.5-7.5-7.5H47.5c-4.143,0-7.5,3.358-7.5,7.5
		S43.357,226.757,47.5,226.757z"/>
	<path style="fill:#082947;" d="M47.5,262.385h96.25c4.143,0,7.5-3.358,7.5-7.5s-3.357-7.5-7.5-7.5H47.5c-4.143,0-7.5,3.358-7.5,7.5
		S43.357,262.385,47.5,262.385z"/>
	<path style="fill:#98D9D5;" d="M383.74,224.885v-9.054c-2.746,0.589-5.566,0.906-8.419,0.906c-6.234,0-12.222-1.427-17.517-4.039
		v12.188c0,4.142-3.357,7.5-7.5,7.5s-7.5-3.358-7.5-7.5v-12.187c-5.295,2.611-11.281,4.038-17.516,4.038
		c-2.853,0-5.673-0.317-8.419-0.906v9.054c0,4.142-3.357,7.5-7.5,7.5v15h81.87v-15C387.098,232.385,383.74,229.027,383.74,224.885z"
		/>
	<polygon style="fill:#98D9D5;" points="344.499,140.18 356.111,140.18 350.305,126.245 	"/>
	<path style="fill:#FFCC75;" d="M381.444,200.977l-19.083-45.797h-24.113l-19.082,45.797c1.977,0.497,4.033,0.759,6.122,0.759
		c7.763,0,14.818-3.454,18.874-9.239c1.404-2.002,3.696-3.195,6.142-3.195s4.737,1.192,6.141,3.194
		c4.057,5.786,11.113,9.24,18.876,9.24C377.411,201.736,379.467,201.474,381.444,200.977z"/>
	<path style="fill:#082947;" d="M316.87,224.885v-9.054c2.746,0.589,5.566,0.906,8.419,0.906c6.234,0,12.221-1.427,17.516-4.038
		v12.187c0,4.142,3.357,7.5,7.5,7.5s7.5-3.358,7.5-7.5v-12.188c5.295,2.611,11.282,4.039,17.517,4.039
		c2.853,0,5.673-0.317,8.419-0.906v9.054c0,4.142,3.357,7.5,7.5,7.5c4.143,0,7.5-3.358,7.5-7.5v-19.896
		c0-0.02-0.003-0.04-0.003-0.059c-0.001-0.109-0.01-0.217-0.016-0.325c-0.008-0.158-0.017-0.315-0.035-0.471
		c-0.089-0.726-0.259-1.394-0.523-2.029l-23.874-57.296c-0.012-0.028-0.023-0.056-0.035-0.085l-17.027-40.863
		c-1.164-2.795-3.896-4.615-6.923-4.615s-5.759,1.821-6.923,4.615l-17.03,40.873c-0.009,0.021-0.017,0.042-0.026,0.063
		l-23.878,57.309c-0.265,0.635-0.434,1.303-0.516,1.983c-0.025,0.202-0.034,0.36-0.042,0.517c-0.006,0.108-0.015,0.217-0.016,0.325
		c0,0.02-0.003,0.04-0.003,0.059v19.896c0,4.142,3.357,7.5,7.5,7.5S316.87,229.027,316.87,224.885z M356.445,192.496
		c-1.403-2.002-3.695-3.194-6.141-3.194s-4.737,1.192-6.142,3.195c-4.056,5.785-11.111,9.239-18.874,9.239
		c-2.089,0-4.146-0.261-6.122-0.759l19.082-45.797h24.113l19.083,45.797c-1.977,0.497-4.033,0.759-6.122,0.759
		C367.559,201.736,360.502,198.282,356.445,192.496z M344.499,140.18l5.806-13.935l5.806,13.935H344.499z"/>
	<path style="fill:#082947;" d="M279.37,262.385h141.87c4.143,0,7.5-3.358,7.5-7.5V76.745c0-4.142-3.357-7.5-7.5-7.5H279.37
		c-4.143,0-7.5,3.358-7.5,7.5v178.14C271.87,259.027,275.228,262.385,279.37,262.385z M286.87,84.245h126.87v163.14H286.87V84.245z"
		/>
</g>
<g>
</g>
<g>
</g>
<g>
</g>
<g>
</g>
<g>
</g>
<g>
</g>
<g>
</g>
<g>
</g>
<g>
</g>
<g>
</g>
<g>
</g>
<g>
</g>
<g>
</g>
<g>
</g>
<g>
</g>
</svg>
