<?xml version="1.0" encoding="iso-8859-1"?>
<!-- Generator: Adobe Illustrator 19.0.0, SVG Export Plug-In . SVG Version: 6.00 Build 0)  -->
<svg version="1.1" id="Layer_1" xmlns="http://www.w3.org/2000/svg" xmlns:xlink="http://www.w3.org/1999/xlink" x="0px" y="0px"
	 viewBox="0 0 512 512" style="enable-background:new 0 0 512 512;" xml:space="preserve">
<path style="fill:#00d8e5;" d="M426.667,0H85.333C38.205,0,0,38.205,0,85.333v341.333C0,473.795,38.205,512,85.333,512h341.333
	C473.795,512,512,473.795,512,426.667V85.333C512,38.205,473.795,0,426.667,0z"/>
<g>
	<path style="fill:#00d8e5;" d="M512,85.333C512,38.205,473.795,0,426.667,0H384v256h128V85.333z"/>
	<rect x="128" style="fill:#00d8e5;" width="128" height="512"/>
</g>
<path style="fill:#F8F8F9;" d="M256,512h170.667C473.795,512,512,473.795,512,426.667V256H256V512z"/>
<path style="fill:#EDEDED;" d="M384,256v256h42.667C473.795,512,512,473.795,512,426.667V256H384z"/>
<g>
	<rect x="327.111" y="320" style="fill:#2197D8;" width="113.778" height="42.667"/>
	<rect x="327.111" y="106.667" style="fill:#2197D8;" width="113.778" height="42.667"/>
	<rect x="327.111" y="405.333" style="fill:#2197D8;" width="113.778" height="42.667"/>
	<polygon style="fill:#2197D8;" points="155.583,326.249 128,353.83 100.417,326.249 70.249,356.417 97.83,384 70.249,411.583 
		100.417,441.751 128,414.17 155.583,441.751 185.751,411.583 158.17,384 185.751,356.417 	"/>
	<polygon style="fill:#2197D8;" points="149.333,71.111 106.667,71.111 106.667,110.117 67.661,110.117 67.661,152.784 
		106.667,152.784 106.667,191.79 149.333,191.79 149.333,152.784 188.341,152.784 188.341,110.117 149.333,110.117 	"/>
</g>
<g>
</g>
<g>
</g>
<g>
</g>
<g>
</g>
<g>
</g>
<g>
</g>
<g>
</g>
<g>
</g>
<g>
</g>
<g>
</g>
<g>
</g>
<g>
</g>
<g>
</g>
<g>
</g>
<g>
</g>
</svg>
