<?xml version="1.0" encoding="iso-8859-1"?>
<!-- Generator: Adobe Illustrator 19.0.0, SVG Export Plug-In . SVG Version: 6.00 Build 0)  -->
<svg version="1.1" id="Layer_1" xmlns="http://www.w3.org/2000/svg" xmlns:xlink="http://www.w3.org/1999/xlink" x="0px" y="0px"
	 viewBox="0 0 512 512" style="enable-background:new 0 0 512 512;" xml:space="preserve">
<path style="fill:#84CAFF;" d="M322.163,81.544C301.976,14.503,275.268,0.146,256.303,0H256c-18.986,0-45.871,14.148-66.163,81.544
	C175.741,128.366,167.978,190.318,167.978,256s7.764,127.634,21.859,174.456C210.129,497.852,237.014,512,256,512h0.303
	c18.965-0.146,45.673-14.503,65.86-81.544c14.096-46.822,21.859-108.774,21.859-174.456S336.259,128.366,322.163,81.544z
	 M292.143,421.418c-13.876,46.122-29.32,58.838-35.84,59.225c-0.104,0.01-0.209,0.01-0.303,0.01
	c-6.332,0-22.047-12.382-36.143-59.235C206.618,377.448,199.325,318.704,199.325,256s7.293-121.448,20.532-165.418
	C233.953,43.729,249.668,31.347,256,31.347c0.094,0,0.199,0,0.303,0.01c6.52,0.387,21.964,13.103,35.84,59.225
	c13.239,43.969,20.532,102.713,20.532,165.418S305.382,377.448,292.143,421.418z"/>
<path style="fill:#00A5FF;" d="M440.163,285.926c-16.75-17.805-37.564-36.133-61.304-54.115
	c-23.74-17.983-50.406-35.621-78.848-52.036c-14.587-8.422-29.215-16.28-43.708-23.489C214.277,135.346,173.39,119.798,138,111.47
	C69.486,95.347,43.792,111.564,34.294,128c-9.488,16.447-10.679,46.801,37.543,98.074c33.499,35.61,83.268,73.31,140.152,106.151
	c14.785,8.537,29.623,16.499,44.314,23.792C298.12,376.801,338.777,392.244,374,400.53c19.978,4.702,36.31,6.656,49.664,6.656
	c32.455,0,47.313-11.536,54.042-23.186C487.194,367.553,488.385,337.199,440.163,285.926z M450.56,368.327
	c-3.176,5.486-21.755,12.894-69.381,1.693c-36.822-8.673-80.321-25.851-124.876-49.183c-9.519-4.974-19.08-10.24-28.641-15.757
	c-54.303-31.347-101.533-67.041-132.995-100.488c-33.52-35.641-36.394-55.432-33.228-60.918c1.964-3.396,9.822-7.534,26.823-7.534
	c10.47,0,24.398,1.578,42.559,5.841c36.989,8.714,80.718,26.008,125.482,49.497c9.32,4.88,18.683,10.041,28.035,15.444
	c54.303,31.347,101.533,67.041,132.995,100.488C450.853,343.05,453.726,362.841,450.56,368.327z"/>
<path style="fill:#0082D2;" d="M477.706,128c-9.498-16.447-35.203-32.653-103.706-16.53c-35.223,8.286-75.88,23.73-117.697,44.513
	c-14.691,7.293-29.529,15.256-44.314,23.792c-56.884,32.841-106.653,70.541-140.152,106.151
	C23.615,337.199,24.806,367.553,34.294,384c6.729,11.651,21.588,23.186,54.042,23.186c13.354,0,29.696-1.954,49.664-6.656
	c35.391-8.328,76.278-23.876,118.303-44.816c14.493-7.21,29.121-15.067,43.708-23.489c56.884-32.841,106.653-70.541,140.152-106.151
	C488.385,174.801,487.194,144.447,477.706,128z M417.332,204.591c-31.462,33.447-78.691,69.141-132.995,100.488
	c-9.352,5.402-18.714,10.564-28.035,15.444c-44.763,23.489-88.492,40.782-125.482,49.497c-47.637,11.212-66.205,3.793-69.381-1.693
	c-3.166-5.486-0.293-25.276,33.228-60.918c31.462-33.447,78.691-69.141,132.995-100.488c9.561-5.517,19.122-10.783,28.641-15.757
	c44.554-23.333,88.054-40.511,124.876-49.183c18.16-4.274,32.089-5.841,42.559-5.841c16.99,0,24.858,4.138,26.823,7.534
	C453.726,149.159,450.853,168.95,417.332,204.591z"/>
<polygon style="fill:#FF4F18;" points="274.787,266.982 255.707,278.058 255.655,278.026 236.575,267.076 236.523,245.018 
	255.603,233.942 255.655,233.974 274.735,244.924 "/>
<path style="fill:#49BBED;" d="M344.022,256c0,65.682-7.764,127.634-21.859,174.456c-20.187,67.041-46.895,81.398-65.86,81.544
	v-31.357c6.52-0.387,21.964-13.103,35.84-59.225c13.239-43.969,20.532-102.714,20.532-165.418s-7.293-121.449-20.532-165.418
	c-13.876-46.122-29.32-58.838-35.84-59.225V0c18.965,0.146,45.672,14.503,65.86,81.544C336.259,128.366,344.022,190.318,344.022,256
	z"/>
<path style="fill:#005C94;" d="M440.163,226.074c-33.499,35.61-83.268,73.31-140.152,106.151
	c-14.587,8.422-29.215,16.279-43.708,23.489v-35.192c9.32-4.88,18.683-10.041,28.035-15.444
	c54.303-31.347,101.533-67.041,132.995-100.488c33.52-35.641,36.394-55.432,33.228-60.918c-1.964-3.396-9.832-7.534-26.823-7.534
	c-10.47,0-24.398,1.567-42.559,5.841c-36.822,8.673-80.321,25.851-124.876,49.183v-35.182
	C298.12,135.199,338.777,119.756,374,111.47c68.504-16.123,94.208,0.084,103.706,16.53
	C487.194,144.447,488.385,174.801,440.163,226.074z"/>
<path style="fill:#0082D2;" d="M477.706,384c-6.729,11.651-21.588,23.186-54.042,23.186c-13.354,0-29.686-1.954-49.664-6.656
	c-35.223-8.286-75.88-23.73-117.697-44.513v-35.182c44.554,23.333,88.054,40.511,124.876,49.183
	c47.626,11.201,66.205,3.793,69.381-1.693c3.166-5.486,0.293-25.276-33.228-60.918c-31.462-33.447-78.691-69.141-132.995-100.488
	c-9.352-5.402-18.714-10.564-28.035-15.444v-35.192c14.493,7.21,29.121,15.067,43.708,23.489
	c28.442,16.415,55.108,34.053,78.848,52.036s44.554,36.31,61.304,54.115C488.385,337.199,487.194,367.553,477.706,384z"/>
<polygon style="fill:#FF3400;" points="274.787,266.982 255.707,278.058 255.655,278.058 255.655,233.974 274.735,244.924 "/>
<g>
</g>
<g>
</g>
<g>
</g>
<g>
</g>
<g>
</g>
<g>
</g>
<g>
</g>
<g>
</g>
<g>
</g>
<g>
</g>
<g>
</g>
<g>
</g>
<g>
</g>
<g>
</g>
<g>
</g>
</svg>
